# xmcd
# 
# Track frame offsets:
#     150
#     30155
#     52535
#     70272
#     96857
#     115480
#     132860
#     155552
#     180620
#     203077
#     223307
#     246817
#     270180
# 
# Disc length: 3904
# 
# Revision: 31
# Processed by: cddbd v1.5.2PL0 Copyright (c) Steve Scherf et al.
# Submitted via: BonkEnc v1.0.0
# 
DISCID=ad0f3e0d
DTITLE=Toto - Past To Present 1977-1990
DYEAR=1990
DGENRE=Rock
TTITLE0=Love Has The Power
TTITLE1=Africa
TTITLE2=Hold The Line
TTITLE3=Out Of Love
TTITLE4=Georgy Porgy
TTITLE5=I'll Be Over You
TTITLE6=Can You Hear What I'm Saying
TTITLE7=Rosanna
TTITLE8=I Won't Hold You Back
TTITLE9=Stop Loving You
TTITLE10=99
TTITLE11=Pamela
TTITLE12=Animal
EXTD=TOTO - Past To Present 1977-1990\nID3G:  17 YEAR: 1990
EXTT0=
EXTT1=
EXTT2=
EXTT3=
EXTT4=
EXTT5=
EXTT6=
EXTT7=
EXTT8=
EXTT9=
EXTT10=
EXTT11=
EXTT12=
PLAYORDER=
